<?xml version="1.0" encoding="UTF-8"?>
<svg version="1.1" xmlns="http://www.w3.org/2000/svg" width="512" height="512">
<path d="M0 0 C168.96 0 337.92 0 512 0 C512 168.96 512 337.92 512 512 C343.04 512 174.08 512 0 512 C0 343.04 0 174.08 0 0 Z " fill="#FDFDFD" transform="translate(0,0)"/>
<path d="M0 0 C21.12 0 42.24 0 64 0 C64 4.29 64 8.58 64 13 C62.02 13 60.04 13 58 13 C58 13.66 58 14.32 58 15 C56.69986587 15.77512591 55.38446049 16.52470825 54.0625 17.26199341 C51.24277438 19.33203493 50.15586079 20.41489191 49.24609375 23.83019638 C48.97342546 27.50888936 48.94557386 31.11945298 49 34.80810547 C48.99238814 36.21786218 48.98126439 37.62760363 48.96690369 39.03730774 C48.9379381 42.85351848 48.95796841 46.66807203 48.9869194 50.48422384 C49.008832 54.47616074 48.98551906 58.46782985 48.96704102 62.45974731 C48.93892579 70.0139912 48.95137554 77.5675997 48.97846508 85.12182534 C49.00733287 93.72406729 48.9908795 102.32603675 48.97065353 110.92828155 C48.93007187 128.61902278 48.94629298 146.30930637 49 164 C44.60343827 164.02465504 40.2069128 164.04283842 35.81030273 164.05493164 C34.31355082 164.05997121 32.81680384 164.06680287 31.32006836 164.07543945 C29.17300193 164.08752159 27.02600038 164.09323191 24.87890625 164.09765625 C23.5854126 164.10289307 22.29191895 164.10812988 20.95922852 164.11352539 C18 164 18 164 17 163 C16.90629376 161.22008076 16.88255729 159.43643261 16.88647461 157.65405273 C16.88655014 156.5129454 16.88662567 155.37183807 16.88670349 154.19615173 C16.89186478 152.9545076 16.89702606 151.71286346 16.90234375 150.43359375 C16.9037587 149.16983414 16.90517365 147.90607452 16.90663147 146.60401917 C16.91129418 143.23875111 16.9202852 139.8735501 16.93133545 136.50830078 C16.94155154 133.0765033 16.94612951 129.64469891 16.95117188 126.21289062 C16.9622262 119.47523936 16.97950363 112.73762889 17 106 C10.73 106 4.46 106 -2 106 C-2 125.14 -2 144.28 -2 164 C-6.929375 164.020625 -11.85875 164.04125 -16.9375 164.0625 C-19.2731604 164.07615601 -19.2731604 164.07615601 -21.65600586 164.09008789 C-23.47950562 164.09383423 -23.47950562 164.09383423 -25.33984375 164.09765625 C-26.59144287 164.10289307 -27.84304199 164.10812988 -29.13256836 164.11352539 C-32 164 -32 164 -33 163 C-33.09658904 161.08905061 -33.12187192 159.17448134 -33.12025452 157.26109314 C-33.12162918 156.01442368 -33.12300385 154.76775421 -33.12442017 153.48330688 C-33.12088056 152.08905006 -33.11724574 150.69479347 -33.11352539 149.30053711 C-33.11324353 147.84228009 -33.11340124 146.38402293 -33.1139679 144.92576599 C-33.1142559 140.95486515 -33.10835877 136.98399425 -33.10139394 133.01310039 C-33.09516081 128.86774899 -33.09455663 124.72239698 -33.09336853 120.57704163 C-33.09025509 112.72180673 -33.08204154 104.86658568 -33.07201904 97.01135689 C-33.06085829 88.07075601 -33.05534755 79.13015448 -33.05032361 70.18954837 C-33.03985893 51.79302279 -33.0215133 33.39651621 -33 15 C-23.1 15 -13.2 15 -3 15 C-2.67 34.14 -2.34 53.28 -2 73 C3.61 73 9.22 73 15 73 C15.07421336 66.39805557 15.12863267 59.79635453 15.16479492 53.1940918 C15.17987182 50.94860606 15.20033653 48.70314971 15.22631836 46.45776367 C15.26274918 43.22827901 15.27973755 39.99918406 15.29296875 36.76953125 C15.30845261 35.76727005 15.32393646 34.76500885 15.33988953 33.7323761 C15.34114869 28.50554729 15.11945984 25.37258937 12 21 C12 19.68 12 18.36 12 17 C8.15299368 14.91620491 4.09945571 13.50313376 0 12 C0 8.04 0 4.08 0 0 Z " fill="#414142" transform="translate(272,132)"/>
<path d="M0 0 C21.12 0 42.24 0 64 0 C64 3.3 64 6.6 64 10 C63.16855469 10.37511719 62.33710938 10.75023437 61.48046875 11.13671875 C59.85044922 11.90435547 59.85044922 11.90435547 58.1875 12.6875 C57.10855469 13.18636719 56.02960938 13.68523437 54.91796875 14.19921875 C51.60801543 16.24190748 50.66535869 17.52684328 49 21 C48.54470347 24.14662617 48.54470347 24.14662617 48.60127258 27.5995636 C48.59462576 28.249037 48.58797893 28.89851039 48.58113068 29.5676648 C48.56253372 31.73578194 48.5651036 33.9033456 48.56762695 36.0715332 C48.55860773 37.62890907 48.54828012 39.18627783 48.53674316 40.74363708 C48.50916569 44.96636558 48.49988765 49.18895941 48.49388909 53.41176629 C48.48450737 57.82674512 48.45830414 62.24162328 48.43388367 66.65653992 C48.39020943 75.01452173 48.36166814 83.37248401 48.33856028 91.73054522 C48.30645587 103.02640278 48.25098184 114.32214397 48.19681454 125.61791325 C48.11210219 143.41190759 48.05861981 161.20585628 48 179 C80.67 179 113.34 179 147 179 C147.33 179.99 147.66 180.98 148 182 C148.61875 182.28875 149.2375 182.5775 149.875 182.875 C152 184 152 184 153.4375 186.4375 C156.20185333 190.97103946 160.16188364 192.06475346 165 194 C165 197.63 165 201.26 165 205 C143.50394484 205.02332692 122.00789175 205.04097815 100.51182652 205.05181217 C90.53156169 205.05697557 80.55130471 205.0640191 70.57104492 205.07543945 C61.8755386 205.08538496 53.18003795 205.09185311 44.4845261 205.09408849 C39.87736269 205.09539583 35.27021554 205.09848312 30.66305733 205.10573006 C26.33181408 205.11248817 22.00059388 205.11461739 17.66934586 205.11310768 C16.07494545 205.1133841 14.48054432 205.11539047 12.88614845 205.11920547 C10.71883429 205.12413947 8.55160857 205.1229994 6.3842926 205.12025452 C4.56052518 205.12163721 4.56052518 205.12163721 2.69991398 205.12304783 C0 205 0 205 -1 204 C-1.07179964 202.48071962 -1.08392007 200.95832518 -1.0625 199.4375 C-1.05347656 198.61121094 -1.04445312 197.78492188 -1.03515625 196.93359375 C-1.02355469 196.29550781 -1.01195312 195.65742188 -1 195 C0.953125 194.28385417 2.90625 193.56770833 4.859375 192.8515625 C9.59379505 190.96816182 11.98314736 189.53033915 14.21372604 184.65431213 C15.94119688 178.8226974 15.57166181 172.65477166 15.54931641 166.62304688 C15.55802134 165.06835455 15.5683912 163.51367079 15.58029175 161.95899963 C15.60697633 157.75442738 15.60824024 153.55021571 15.60316515 149.34557533 C15.60101975 145.82915931 15.61080737 142.31281537 15.62037599 138.79641485 C15.6425321 130.49882414 15.6434597 122.20141454 15.63134766 113.90380859 C15.61926161 105.35571989 15.64391334 96.80828905 15.68648779 88.26031256 C15.72175465 80.90802753 15.73371735 73.55595161 15.72721231 66.20358515 C15.72359262 61.81803127 15.7287981 57.43294704 15.75664139 53.04747009 C15.78184792 48.92341493 15.77786595 44.80038389 15.75181961 40.67634392 C15.74709992 39.16711514 15.7525155 37.6578137 15.76906586 36.14866829 C15.84662952 28.52357757 15.86807238 22.36219982 10.56708336 16.39250946 C8.54637134 14.59690581 6.38426309 13.26225693 4 12 C4 11.34 4 10.68 4 10 C2.68 9.67 1.36 9.34 0 9 C0 6.03 0 3.06 0 0 Z " fill="#434344" transform="translate(175,133)"/>
<path d="M0 0 C2.64 0 5.28 0 8 0 C8 0.66 8 1.32 8 2 C9.65 2 11.3 2 13 2 C13 2.66 13 3.32 13 4 C13.86625 4.0825 14.7325 4.165 15.625 4.25 C18.85461192 4.96769154 20.50346128 5.93724856 23.12890625 7.83984375 C25.50732426 9.31456222 27.96274167 10.2773794 30.5625 11.3125 C36.31721026 13.62440474 41.66201287 16.44082235 47.08984375 19.4296875 C50.9486893 21.5119102 54.8644065 23.15179049 58.9375 24.76953125 C63.90034854 26.80069708 63.90034854 26.80069708 65 29 C67.34038186 30.13102526 67.34038186 30.13102526 70.0625 31.125 C70.98160156 31.47820313 71.90070313 31.83140625 72.84765625 32.1953125 C73.55792969 32.46085937 74.26820313 32.72640625 75 33 C75 33.66 75 34.32 75 35 C75.721875 35.12503906 76.44375 35.25007813 77.1875 35.37890625 C79.96122963 35.99143821 82.37908479 36.8522773 85 37.9375 C85.825 38.27652344 86.65 38.61554687 87.5 38.96484375 C88.325 39.30644531 89.15 39.64804687 90 40 C90.9075 40.33128906 91.815 40.66257813 92.75 41.00390625 C95 42 95 42 96 44 C96.61875 44.226875 97.2375 44.45375 97.875 44.6875 C101.08312536 46.66898919 101.61911575 49.57780861 103 53 C105.53016581 56.86183203 109.72927372 57.08984522 114 58 C114 62.62 114 67.24 114 72 C43.71 72 -26.58 72 -99 72 C-99 68.04 -99 64.08 -99 60 C-94 57 -94 57 -91.25 55.8125 C-88.86084287 54.26336701 -88.86084287 54.26336701 -88.53515625 52.1015625 C-88.32619665 50.07062183 -88.16152875 48.03526229 -88 46 C-87.34 45.34 -86.68 44.68 -86 44 C-84.68 44 -83.36 44 -82 44 C-82 43.34 -82 42.68 -82 42 C-81.15115234 41.60167969 -81.15115234 41.60167969 -80.28515625 41.1953125 C-79.18494141 40.66550781 -79.18494141 40.66550781 -78.0625 40.125 C-77.33160156 39.77695312 -76.60070312 39.42890625 -75.84765625 39.0703125 C-73.83667541 38.1315023 -73.83667541 38.1315023 -73 36 C-69.24079436 34.06669424 -66.19075475 33.80508117 -62 34 C-62 33.34 -62 32.68 -62 32 C-58.25312717 29.33381915 -54.26670655 27.91452341 -49.9375 26.4375 C-44.33836092 24.52296033 -44.33836092 24.52296033 -39 22 C-39 21.34 -39 20.68 -39 20 C-38.28972656 19.80664062 -37.57945312 19.61328125 -36.84765625 19.4140625 C-35.92855469 19.15367188 -35.00945312 18.89328125 -34.0625 18.625 C-32.68771484 18.24214844 -32.68771484 18.24214844 -31.28515625 17.8515625 C-28.83254913 17.23339896 -28.83254913 17.23339896 -28 15 C-26.1875 14.18359375 -26.1875 14.18359375 -24 13.4375 C-21.26066983 12.60962158 -21.26066983 12.60962158 -19 11 C-16.66702567 10.95907063 -14.33294775 10.95758277 -12 11 C-11.773125 10.195625 -11.54625 9.39125 -11.3125 8.5625 C-10.879375 7.716875 -10.44625 6.87125 -10 6 C-7.375 5.1875 -7.375 5.1875 -5 5 C-5 4.01 -5 3.02 -5 2 C-3.35 2 -1.7 2 0 2 C0 1.34 0 0.68 0 0 Z " fill="#414142" transform="translate(250,16)"/>
<path d="M0 0 C80.19 0 160.38 0 243 0 C243 5.61 243 11.22 243 17 C237 20 237 20 233.75 21 C230.70577941 21.79957456 230.70577941 21.79957456 229 25 C228.67 27.97 228.34 30.94 228 34 C157.38 34 86.76 34 14 34 C13.67 31.36 13.34 28.72 13 26 C12.69830934 24.65915264 12.38482319 23.3193938 12 22 C11.443125 21.87625 10.88625 21.7525 10.3125 21.625 C6.45559136 20.58259226 3.33071252 19.22047502 0 17 C0 11.39 0 5.78 0 0 Z " fill="#404041" transform="translate(135,345)"/>
<path d="M0 0 C0.97626673 -0.00155999 1.95253346 -0.00311998 2.95838404 -0.00472724 C6.25038796 -0.00873602 9.54234627 -0.00554806 12.83435059 -0.00241089 C15.18605069 -0.00376498 17.53775058 -0.00554496 19.88945007 -0.00772095 C26.29215956 -0.0122943 32.69485301 -0.01050611 39.09756279 -0.00734186 C45.10747887 -0.00467329 51.11739465 -0.00680116 57.12731081 -0.00826906 C69.7559867 -0.01112307 82.38465534 -0.00783806 95.01333004 -0.00246869 C105.85780797 0.00199928 116.7022752 0.00122332 127.54675293 -0.00338745 C140.12912787 -0.0087346 152.71149644 -0.01084839 165.29387236 -0.00777519 C171.95839388 -0.00619174 178.62290898 -0.00601804 185.28742981 -0.00931168 C191.55163116 -0.01219099 197.81581222 -0.01021357 204.08001137 -0.00441742 C206.38512958 -0.00309015 208.6902495 -0.00348339 210.99536705 -0.00568008 C214.12999142 -0.00839285 217.26454981 -0.00500885 220.39916992 0 C221.78329 -0.00334608 221.78329 -0.00334608 223.1953721 -0.00675976 C229.47128499 0.01283366 229.47128499 0.01283366 231.69958496 1.12698364 C231.69958496 6.73698364 231.69958496 12.34698364 231.69958496 18.12698364 C229.59583496 18.68385864 229.59583496 18.68385864 227.44958496 19.25198364 C223.95440996 20.42803309 222.76343933 21.05674384 220.19958496 23.87698364 C218.29008873 27.60644405 218.29008873 27.60644405 217.69958496 34.12698364 C147.40958496 34.12698364 77.11958496 34.12698364 4.69958496 34.12698364 C3.70958496 31.15698364 2.71958496 28.18698364 1.69958496 25.12698364 C1.03958496 24.13698364 0.37958496 23.14698364 -0.30041504 22.12698364 C-0.30041504 21.13698364 -0.30041504 20.14698364 -0.30041504 19.12698364 C-3.96106443 18.37332053 -7.60850488 17.742302 -11.30041504 17.12698364 C-11.30041504 11.84698364 -11.30041504 6.56698364 -11.30041504 1.12698364 C-7.83383619 -0.60630578 -3.81575623 -0.00922451 0 0 Z " fill="#424243" transform="translate(146.3004150390625,90.87301635742188)"/>
<path d="M0 0 C0.97314453 1.70239258 0.97314453 1.70239258 1.6328125 3.89453125 C1.88160156 4.68537109 2.13039063 5.47621094 2.38671875 6.29101562 C2.63035156 7.12310547 2.87398438 7.95519531 3.125 8.8125 C3.62507257 10.44478815 4.12759841 12.07632713 4.6328125 13.70703125 C4.84824707 14.4338208 5.06368164 15.16061035 5.28564453 15.90942383 C6.01934878 18.05662461 6.98212508 19.97531682 8 22 C8.57036085 24.11224545 9.08708794 26.23937931 9.5625 28.375 C9.81128906 29.47585938 10.06007813 30.57671875 10.31640625 31.7109375 C10.77204059 33.90318958 11.15005359 36.11300623 11.44921875 38.33203125 C11.63097656 39.21246094 11.81273437 40.09289062 12 41 C14.23690643 42.44525427 14.23690643 42.44525427 17 43 C18.2684375 43.3403125 18.2684375 43.3403125 19.5625 43.6875 C22.2842593 44.18672186 22.2842593 44.18672186 26 43 C25.67 30.46 25.34 17.92 25 5 C23.35 4.34 21.7 3.68 20 3 C20 2.01 20 1.02 20 0 C27.92 0 35.84 0 44 0 C43.67 0.99 43.34 1.98 43 3 C42.01 3.33 41.02 3.66 40 4 C39.67 16.54 39.34 29.08 39 42 C50.01871973 43.16860945 50.01871973 43.16860945 54.125 39.75 C55.63756173 37.53157613 56.98825054 35.48338504 58 33 C58.99 33 59.98 33 61 33 C60.67 36.63 60.34 40.26 60 44 C62.02045442 43.39816251 64.02111039 42.72693904 66 42 C66.33 41.34 66.66 40.68 67 40 C67.66 40 68.32 40 69 40 C69.33 37.69 69.66 35.38 70 33 C70.66 33 71.32 33 72 33 C72.0825 31.865625 72.165 30.73125 72.25 29.5625 C72.76293297 25.31571672 74.1929293 21.89974746 76.0625 18.078125 C76.97243768 16.06109647 77.53339982 14.15802584 78 12 C78.66 12 79.32 12 80 12 C80.33 9.03 80.66 6.06 81 3 C83.97 2.34 86.94 1.68 90 1 C90 0.34 90 -0.32 90 -1 C91.32 -1 92.64 -1 94 -1 C95.75489649 3.73822053 97.11868028 8.30915418 97.875 13.3125 C98.75757198 18.62276501 100.58992581 23.15607945 102.76953125 28.05859375 C104.2705 31.64662381 105.28738057 35.27013763 106.2265625 39.0390625 C106.9281665 41.36413309 106.9281665 41.36413309 110 43 C113.3 43 116.6 43 120 43 C119.67 30.46 119.34 17.92 119 5 C117.35 4.34 115.7 3.68 114 3 C114 2.01 114 1.02 114 0 C121.92 0 129.84 0 138 0 C138 0.99 138 1.98 138 3 C135.525 3.99 135.525 3.99 133 5 C133 17.54 133 30.08 133 43 C144.52043682 43.3408195 144.52043682 43.3408195 149 38 C149.7734375 36.63875 149.7734375 36.63875 150.5625 35.25 C151.036875 34.5075 151.51125 33.765 152 33 C152.99 33 153.98 33 155 33 C155 34.65 155 36.3 155 38 C154.34 38 153.68 38 153 38 C152.67 41.3 152.34 44.6 152 48 C130.55 48 109.1 48 87 48 C87.33 46.68 87.66 45.36 88 44 C89.32 43.67 90.64 43.34 92 43 C91.67 39.04 91.34 35.08 91 31 C86.05 31 81.1 31 76 31 C75.7834375 32.85625 75.7834375 32.85625 75.5625 34.75 C75.21311498 37.56504499 74.79620634 40.2701497 74 43 C76.97 43.495 76.97 43.495 80 44 C80 45.32 80 46.64 80 48 C73.4 48 66.8 48 60 48 C60 47.34 60 46.68 60 46 C59.34 46 58.68 46 58 46 C58 46.66 58 47.32 58 48 C36.55 48 15.1 48 -7 48 C-6.67 46.68 -6.34 45.36 -6 44 C-4.68 43.67 -3.36 43.34 -2 43 C-2 39.04 -2 35.08 -2 31 C-7.28 31 -12.56 31 -18 31 C-18.33 34.96 -18.66 38.92 -19 43 C-17.02 43.33 -15.04 43.66 -13 44 C-13 45.32 -13 46.64 -13 48 C-27.85 48 -42.7 48 -58 48 C-57.67 46.68 -57.34 45.36 -57 44 C-55.02 43.505 -55.02 43.505 -53 43 C-52.67 37.39 -52.34 31.78 -52 26 C-58.27 26 -64.54 26 -71 26 C-70.938125 28.578125 -70.87625 31.15625 -70.8125 33.8125 C-70.80246948 35.02450073 -70.80246948 35.02450073 -70.79223633 36.26098633 C-70.73839521 38.53031227 -70.73839521 38.53031227 -70 42 C-67.55208809 43.86142332 -67.55208809 43.86142332 -65 45 C-65 45.99 -65 46.98 -65 48 C-72.92 48 -80.84 48 -89 48 C-88.67 46.68 -88.34 45.36 -88 44 C-86.02 43.505 -86.02 43.505 -84 43 C-84 30.46 -84 17.92 -84 5 C-86.475 4.01 -86.475 4.01 -89 3 C-89 2.01 -89 1.02 -89 0 C-81.08 0 -73.16 0 -65 0 C-66 3 -66 3 -70 5 C-70.33 10.61 -70.66 16.22 -71 22 C-64.73 22 -58.46 22 -52 22 C-52.33 16.39 -52.66 10.78 -53 5 C-55.475 4.01 -55.475 4.01 -58 3 C-58 2.01 -58 1.02 -58 0 C-50.08 0 -42.16 0 -34 0 C-34.66 1.32 -35.32 2.64 -36 4 C-36.66 4 -37.32 4 -38 4 C-38.33 16.87 -38.66 29.74 -39 43 C-35.7 43 -32.4 43 -29 43 C-26.91783124 40.6450037 -26.91783124 40.6450037 -26 38 C-25.34 38 -24.68 38 -24 38 C-23.88269531 37.15179688 -23.76539063 36.30359375 -23.64453125 35.4296875 C-22.10018104 27.21187242 -18.83745514 19.18863525 -14.9140625 11.8203125 C-13.32364261 8.65306606 -12.19092571 5.33459199 -11 2 C-10.01 2 -9.02 2 -8 2 C-8 1.34 -8 0.68 -8 0 C-4.95624699 -0.97834918 -3.00172948 -1.17954443 0 0 Z " fill="#4C4C4D" transform="translate(225,444)"/>
<path d="M0 0 C7.92 0 15.84 0 24 0 C23 3 23 3 19 5 C18.67 10.61 18.34 16.22 18 22 C24.27 22 30.54 22 37 22 C36.67 16.39 36.34 10.78 36 5 C33.525 4.01 33.525 4.01 31 3 C31 2.01 31 1.02 31 0 C38.92 0 46.84 0 55 0 C54.34 1.32 53.68 2.64 53 4 C52.34 4 51.68 4 51 4 C50.92597207 9.51754805 50.87145634 15.03480856 50.83520508 20.55273438 C50.82009675 22.43071526 50.79960906 24.30866076 50.77368164 26.18652344 C50.73738754 28.88225019 50.72029455 31.57751146 50.70703125 34.2734375 C50.69154739 35.11619232 50.67606354 35.95894714 50.66011047 36.82723999 C50.62410864 39.43722275 50.62410864 39.43722275 51 43 C51.99 43.66 52.98 44.32 54 45 C54 45.66 54 46.32 54 47 C46.74 47 39.48 47 32 47 C32 46.01 32 45.02 32 44 C33.98 43.505 33.98 43.505 36 43 C36.33 37.39 36.66 31.78 37 26 C30.73 26 24.46 26 18 26 C18.061875 28.578125 18.12375 31.15625 18.1875 33.8125 C18.19753052 35.02450073 18.19753052 35.02450073 18.20776367 36.26098633 C18.26160479 38.53031227 18.26160479 38.53031227 19 42 C21.44791191 43.86142332 21.44791191 43.86142332 24 45 C24 45.99 24 46.98 24 48 C16.08 48 8.16 48 0 48 C0.33 46.68 0.66 45.36 1 44 C2.98 43.505 2.98 43.505 5 43 C5 30.46 5 17.92 5 5 C2.525 4.01 2.525 4.01 0 3 C0 2.01 0 1.02 0 0 Z " fill="#4C4C4D" transform="translate(136,444)"/>
<path d="M0 0 C0.99 0 1.98 0 3 0 C3.77227219 2.60374775 4.54306838 5.20791245 5.3125 7.8125 C5.65752563 8.97857788 5.65752563 8.97857788 6.00952148 10.16821289 C7.25869634 14.40995518 8.45223868 18.65682578 9.5625 22.9375 C10.74859402 27.37187422 12.31516646 31.54912872 14.10546875 35.7734375 C15 38 15 38 15.875 41.4375 C17.42614719 44.9706686 19.50185249 45.63115967 23 47 C23 47.66 23 48.32 23 49 C14.09 49 5.18 49 -4 49 C-3.67 47.68 -3.34 46.36 -3 45 C-0.525 44.505 -0.525 44.505 2 44 C1.49547781 40.25212088 0.91840767 36.67363066 0 33 C-4.62 33 -9.24 33 -14 33 C-14.66 36.63 -15.32 40.26 -16 44 C-14.02 44.66 -12.04 45.32 -10 46 C-10 46.99 -10 47.98 -10 49 C-16.6 49 -23.2 49 -30 49 C-28.86195909 45.58587726 -28.50733101 45.52802364 -25.5625 43.875 C-23.29332267 42.34376651 -22.18940055 41.51408719 -21.234375 38.921875 C-20.94863867 37.36619943 -20.6876084 35.80581856 -20.44921875 34.2421875 C-19.89692879 31.48554023 -18.57503852 29.46227901 -17.0859375 27.10546875 C-14.65226935 22.38695388 -13.43944511 17.09165424 -12 12 C-11.34 12 -10.68 12 -10 12 C-9.95875 10.906875 -9.9175 9.81375 -9.875 8.6875 C-9 5 -9 5 -6.125 3.0625 C-3 2 -3 2 0 2 C0 1.34 0 0.68 0 0 Z " fill="#4F4F50" transform="translate(299,388)"/>
<path d="M0 0 C1.32229189 2.64458379 1.09677194 4.67761301 1.0625 7.625 C1.05347656 8.62789063 1.04445313 9.63078125 1.03515625 10.6640625 C1.02355469 11.43492187 1.01195312 12.20578125 1 13 C0.01 13 -0.98 13 -2 13 C-2.556875 11.906875 -3.11375 10.81375 -3.6875 9.6875 C-5.66503167 6.28366499 -7.22438874 4.4587589 -11 3 C-15.05308139 2.41510411 -18.07871985 2.57006926 -21.8125 4.3125 C-26.17166337 7.67528317 -27.59815357 9.87915566 -28.65625 15.2578125 C-29.52129673 22.15852619 -29.57201036 29.20891525 -28 36 C-27.34 36 -26.68 36 -26 36 C-25.278125 36.99 -24.55625 37.98 -23.8125 39 C-21.53413246 41.8818637 -21.26098931 41.96903517 -17.3125 42.4375 C-14.12861719 42.20024546 -14.12861719 42.20024546 -12 41 C-12 36.38 -12 31.76 -12 27 C-13.98 26.67 -15.96 26.34 -18 26 C-18 25.34 -18 24.68 -18 24 C-10.41 24 -2.82 24 5 24 C4 27 4 27 0 29 C0 33.62 0 38.24 0 43 C-9.15867214 46.18562509 -18.42153227 49.19282258 -28 46 C-28 45.34 -28 44.68 -28 44 C-28.556875 43.896875 -29.11375 43.79375 -29.6875 43.6875 C-34.25938201 42.32829184 -37.55068631 40.1251599 -40 36 C-40 35.01 -40 34.02 -40 33 C-40.66 33 -41.32 33 -42 33 C-44.14918945 26.55243164 -43.99567719 18.13400567 -41 12 C-32.56684214 -3.41354483 -15.38704348 -6.18888465 0 0 Z " fill="#4C4C4C" transform="translate(263,391)"/>
<path d="M0 0 C11.55 0 23.1 0 35 0 C35.495 5.445 35.495 5.445 36 11 C32 9 32 9 30.3125 6.375 C28.28403388 3.8199364 28.28403388 3.8199364 25.78125 3.640625 C23.47744586 3.62604396 21.28120783 3.67609625 19 4 C16.94077598 6.05922402 17.58572421 10.21708124 17.4375 13.0625 C17.39431641 13.82111328 17.35113281 14.57972656 17.30664062 15.36132812 C17.20026367 17.24065438 17.09960066 19.12030244 17 21 C20.3 20.67 23.6 20.34 27 20 C27.66 18.35 28.32 16.7 29 15 C29.99 15 30.98 15 32 15 C32 20.28 32 25.56 32 31 C28 29 28 29 27 26 C23.7 25.67 20.4 25.34 17 25 C17.14019692 27.81288705 17.28687955 30.62516885 17.4375 33.4375 C17.47681641 34.23994141 17.51613281 35.04238281 17.55664062 35.86914062 C17.4054296 39.75239561 17.4054296 39.75239561 19 43 C22.38114603 43.43829671 25.62355802 43.4838515 29 43 C31.91790525 40.7495803 31.91790525 40.7495803 34 38 C36.3125 36.6875 36.3125 36.6875 38 36 C38 38.64 38 41.28 38 44 C37.34 44 36.68 44 36 44 C36 44.99 36 45.98 36 47 C24.12 47 12.24 47 0 47 C1 44 1 44 4 42 C4.33767042 39.09843676 4.48908344 36.4000311 4.51171875 33.4921875 C4.52966995 32.65156769 4.54762115 31.81094788 4.56611633 30.94485474 C4.62038031 28.25495449 4.65416586 25.56523324 4.6875 22.875 C4.72065895 21.05336041 4.75514727 19.2317445 4.79101562 17.41015625 C4.87611572 12.94023305 4.94284956 8.47036441 5 4 C3.35 3.67 1.7 3.34 0 3 C0 2.01 0 1.02 0 0 Z " fill="#454546" transform="translate(179,390)"/>
<path d="M0 0 C7.92 0 15.84 0 24 0 C24 0.99 24 1.98 24 3 C22.35 3.66 20.7 4.32 19 5 C19 17.54 19 30.08 19 43 C30.52043682 43.3408195 30.52043682 43.3408195 35 38 C35.7734375 36.63875 35.7734375 36.63875 36.5625 35.25 C37.036875 34.5075 37.51125 33.765 38 33 C38.99 33 39.98 33 41 33 C41 34.65 41 36.3 41 38 C40.34 38 39.68 38 39 38 C38.505 42.95 38.505 42.95 38 48 C16.55 48 -4.9 48 -27 48 C-26.67 47.01 -26.34 46.02 -26 45 C-26 45.66 -26 46.32 -26 47 C-18.08 47 -10.16 47 -2 47 C-2 46.34 -2 45.68 -2 45 C-2.66 44.67 -3.32 44.34 -4 44 C0.95 43.505 0.95 43.505 6 43 C5.67 30.46 5.34 17.92 5 5 C3.35 4.34 1.7 3.68 0 3 C0 2.01 0 1.02 0 0 Z " fill="#4A4A4B" transform="translate(339,444)"/>
<path d="M0 0 C0.97626673 -0.00155999 1.95253346 -0.00311998 2.95838404 -0.00472724 C6.25038796 -0.00873602 9.54234627 -0.00554806 12.83435059 -0.00241089 C15.18605069 -0.00376498 17.53775058 -0.00554496 19.88945007 -0.00772095 C26.29215956 -0.0122943 32.69485301 -0.01050611 39.09756279 -0.00734186 C45.10747887 -0.00467329 51.11739465 -0.00680116 57.12731081 -0.00826906 C69.7559867 -0.01112307 82.38465534 -0.00783806 95.01333004 -0.00246869 C105.85780797 0.00199928 116.7022752 0.00122332 127.54675293 -0.00338745 C140.12912787 -0.0087346 152.71149644 -0.01084839 165.29387236 -0.00777519 C171.95839388 -0.00619174 178.62290898 -0.00601804 185.28742981 -0.00931168 C191.55163116 -0.01219099 197.81581222 -0.01021357 204.08001137 -0.00441742 C206.38512958 -0.00309015 208.6902495 -0.00348339 210.99536705 -0.00568008 C214.12999142 -0.00839285 217.26454981 -0.00500885 220.39916992 0 C221.78329 -0.00334608 221.78329 -0.00334608 223.1953721 -0.00675976 C229.47128499 0.01283366 229.47128499 0.01283366 231.69958496 1.12698364 C231.69958496 6.73698364 231.69958496 12.34698364 231.69958496 18.12698364 C229.59583496 18.68385864 229.59583496 18.68385864 227.44958496 19.25198364 C223.95440996 20.42803309 222.76343933 21.05674384 220.19958496 23.87698364 C218.29008873 27.60644405 218.29008873 27.60644405 217.69958496 34.12698364 C147.40958496 34.12698364 77.11958496 34.12698364 4.69958496 34.12698364 C3.70958496 31.15698364 2.71958496 28.18698364 1.69958496 25.12698364 C2.02958496 24.46698364 2.35958496 23.80698364 2.69958496 23.12698364 C3.35958496 23.45698364 4.01958496 23.78698364 4.69958496 24.12698364 C4.69958496 26.76698364 4.69958496 29.40698364 4.69958496 32.12698364 C109.63958496 32.62198364 109.63958496 32.62198364 216.69958496 33.12698364 C216.69958496 30.81698364 216.69958496 28.50698364 216.69958496 26.12698364 C218.7631964 22.22086199 220.46047917 19.64095 224.69958496 18.12698364 C224.69958496 17.46698364 224.69958496 16.80698364 224.69958496 16.12698364 C226.67958496 16.12698364 228.65958496 16.12698364 230.69958496 16.12698364 C230.69958496 11.50698364 230.69958496 6.88698364 230.69958496 2.12698364 C151.49958496 2.12698364 72.29958496 2.12698364 -9.30041504 2.12698364 C-9.30041504 6.74698364 -9.30041504 11.36698364 -9.30041504 16.12698364 C-7.65041504 16.12698364 -6.00041504 16.12698364 -4.30041504 16.12698364 C-3.64041504 17.11698364 -2.98041504 18.10698364 -2.30041504 19.12698364 C-6.75541504 18.13698364 -6.75541504 18.13698364 -11.30041504 17.12698364 C-11.30041504 11.84698364 -11.30041504 6.56698364 -11.30041504 1.12698364 C-7.83383619 -0.60630578 -3.81575623 -0.00922451 0 0 Z " fill="#858586" transform="translate(146.3004150390625,90.87301635742188)"/>
<path d="M0 0 C7.59 0 15.18 0 23 0 C23 0.99 23 1.98 23 3 C21.68 3.33 20.36 3.66 19 4 C18.67 16.54 18.34 29.08 18 42 C30.40344124 42.46428059 30.40344124 42.46428059 35 37 C36.23512079 34.86690808 36.23512079 34.86690808 37 33 C37.99 33 38.98 33 40 33 C39.4618756 38.20186922 38.69880437 41.90358688 37 47 C24.79 47 12.58 47 0 47 C1 44 1 44 4 42 C4.26667539 39.16272675 4.34791234 36.54616955 4.29296875 33.7109375 C4.28872391 32.89251373 4.28447906 32.07408997 4.28010559 31.23086548 C4.26328679 28.61191164 4.22562974 25.99372198 4.1875 23.375 C4.17245726 21.6015736 4.15876814 19.82813516 4.14648438 18.0546875 C4.11337292 13.7028297 4.06156952 9.35154449 4 5 C2.68 4.34 1.36 3.68 0 3 C0 2.01 0 1.02 0 0 Z " fill="#505051" transform="translate(323,390)"/>
<path d="M0 0 C7.92 0 15.84 0 24 0 C23.67 0.99 23.34 1.98 23 3 C22.01 3.33 21.02 3.66 20 4 C19.67 16.54 19.34 29.08 19 42 C30.46541887 42.33432376 30.46541887 42.33432376 39 37 C38.33333333 40.33333333 37.66666667 43.66666667 37 47 C25.45 47 13.9 47 2 47 C2 46.01 2 45.02 2 44 C3.98 43.505 3.98 43.505 6 43 C5.67 30.46 5.34 17.92 5 5 C2.525 4.01 2.525 4.01 0 3 C0 2.01 0 1.02 0 0 Z " fill="#49494A" transform="translate(245,444)"/>
<path d="M0 0 C7.59 0 15.18 0 23 0 C22 3 22 3 19.9375 4.1875 C19.298125 4.455625 18.65875 4.72375 18 5 C17.9753499 10.10863896 17.95716393 15.21724359 17.94506836 20.32592773 C17.94002796 22.06519168 17.9331957 23.80445136 17.92456055 25.54370117 C17.91248208 28.03825937 17.90676892 30.53276173 17.90234375 33.02734375 C17.89718246 33.80963852 17.89202118 34.59193329 17.88670349 35.39793396 C17.88650774 37.26567114 17.93800306 39.13329204 18 41 C19.71944301 42.71944301 21.90415223 42.29345984 24.25 42.375 C28.40200287 42.34268869 29.619362 42.27965241 33.0625 39.75 C34.62681354 37.52968401 35.9773728 35.51008495 37 33 C37.99 33 38.98 33 40 33 C39.80083984 33.88751953 39.80083984 33.88751953 39.59765625 34.79296875 C39.42105469 35.58316406 39.24445313 36.37335938 39.0625 37.1875 C38.88847656 37.96480469 38.71445313 38.74210937 38.53515625 39.54296875 C37.99506959 42.02263668 37.49770422 44.51147892 37 47 C24.79 47 12.58 47 0 47 C0 46.01 0 45.02 0 44 C1.32 43.34 2.64 42.68 4 42 C4 29.79 4 17.58 4 5 C2.68 4.34 1.36 3.68 0 3 C0 2.01 0 1.02 0 0 Z " fill="#4C4C4D" transform="translate(137,390)"/>
<path d="M0 0 C0.33 0 0.66 0 1 0 C1.33 48.51 1.66 97.02 2 147 C11.9 147.33 21.8 147.66 32 148 C32 128.86 32 109.72 32 90 C38.27 90 44.54 90 51 90 C51.33 108.81 51.66 127.62 52 147 C62.23 147.33 72.46 147.66 83 148 C83 100.81 83 53.62 83 5 C83.66 4.67 84.32 4.34 85 4 C85 51.85 85 99.7 85 149 C73.78 149 62.56 149 51 149 C50 148 50 148 49.87974548 145.75376892 C49.88196609 144.76115555 49.88418671 143.76854218 49.88647461 142.74584961 C49.88655014 141.62476303 49.88662567 140.50367645 49.88670349 139.34861755 C49.89444542 137.51896202 49.89444542 137.51896202 49.90234375 135.65234375 C49.9037587 134.41078018 49.90517365 133.16921661 49.90663147 131.89002991 C49.91129409 128.58394509 49.92028503 125.27792854 49.93133545 121.97186279 C49.94155173 118.6003885 49.94612955 115.22890717 49.95117188 111.85742188 C49.96222605 105.23825982 49.9795034 98.61913929 50 92 C44.39 92 38.78 92 33 92 C33.00523682 93.7214624 33.01047363 95.4429248 33.01586914 97.21655273 C33.03196782 102.89230377 33.04347276 108.56805152 33.05181217 114.24381924 C33.05703982 117.68640348 33.06413531 121.12896312 33.07543945 124.5715332 C33.08834235 128.52555043 33.09322918 132.47955756 33.09765625 136.43359375 C33.10281754 137.67523788 33.10797882 138.91688202 33.11329651 140.19615173 C33.11337204 141.33725906 33.11344757 142.47836639 33.11352539 143.65405273 C33.115746 144.664431 33.11796661 145.67480927 33.12025452 146.71580505 C33 149 33 149 32 150 C29.72052208 150.1002093 27.43792865 150.13081303 25.15625 150.1328125 C24.12981384 150.13424759 24.12981384 150.13424759 23.0826416 150.13571167 C21.63338123 150.1363933 20.18411782 150.13454023 18.73486328 150.13037109 C16.50937072 150.12502252 14.28407999 150.1303166 12.05859375 150.13671875 C10.65364539 150.13605797 9.24869715 150.1347768 7.84375 150.1328125 C6.55662109 150.13168457 5.26949219 150.13055664 3.94335938 150.12939453 C1 150 1 150 0 149 C-0.09660952 147.07638373 -0.12187168 145.14916934 -0.12025452 143.22312927 C-0.12162918 141.96804565 -0.12300385 140.71296204 -0.12442017 139.41984558 C-0.12088055 138.01614356 -0.11724574 136.61244178 -0.11352539 135.20874023 C-0.11324353 133.74063112 -0.11340124 132.27252187 -0.1139679 130.80441284 C-0.1142559 126.80665343 -0.10835874 122.80892376 -0.10139394 118.81117129 C-0.09516085 114.63779267 -0.09455664 110.46441344 -0.09336853 106.29103088 C-0.09025508 98.38267208 -0.08204151 90.47432703 -0.07201904 82.5659743 C-0.06085832 73.56491506 -0.05534756 64.56385518 -0.05032361 55.56279075 C-0.03985891 37.04185269 -0.0222592 18.52092745 0 0 Z " fill="#BBBBBC" transform="translate(238,148)"/>
<path d="M0 0 C80.19 0 160.38 0 243 0 C243 5.61 243 11.22 243 17 C237 20 237 20 234 20 C234 19.34 234 18.68 234 18 C234.99 18 235.98 18 237 18 C237.33 17.01 237.66 16.02 238 15 C238.99 15 239.98 15 241 15 C241 10.71 241 6.42 241 2 C162.13 2 83.26 2 2 2 C2 6.62 2 11.24 2 16 C2.66 16 3.32 16 4 16 C4 16.66 4 17.32 4 18 C4.7425 18.12375 5.485 18.2475 6.25 18.375 C8.87793635 18.97225826 10.75265987 19.52760474 13 21 C14.75819117 23.90900721 15.32804176 26.38447323 15.625 29.75 C15.69976562 30.54921875 15.77453125 31.3484375 15.8515625 32.171875 C15.92503906 33.07679688 15.92503906 33.07679688 16 34 C15.34 34 14.68 34 14 34 C13.855625 32.7625 13.71125 31.525 13.5625 30.25 C13.21311498 27.43495501 12.79620634 24.7298503 12 22 C11.443125 21.87625 10.88625 21.7525 10.3125 21.625 C6.45559136 20.58259226 3.33071252 19.22047502 0 17 C0 11.39 0 5.78 0 0 Z " fill="#8E8E8F" transform="translate(135,345)"/>
<path d="M0 0 C21.12 0 42.24 0 64 0 C64 0.66 64 1.32 64 2 C43.21 2 22.42 2 1 2 C1 4.64 1 7.28 1 10 C1.99 10 2.98 10 4 10 C4 10.66 4 11.32 4 12 C5.11375 12.1546875 5.11375 12.1546875 6.25 12.3125 C9.38916155 13.09729039 10.74749808 13.67241469 13 16 C13.8964997 18.02542525 14.62065978 20.04879002 15.2890625 22.16015625 C15.93745989 24.20726571 15.93745989 24.20726571 18 26 C18.24723816 28.0940094 18.24723816 28.0940094 18.24291992 30.70922852 C18.24753487 32.17568565 18.24753487 32.17568565 18.25224304 33.67176819 C18.24505753 34.73012375 18.23787201 35.78847931 18.23046875 36.87890625 C18.23001053 37.96131088 18.22955231 39.04371552 18.2290802 40.15892029 C18.22605559 42.44962661 18.21816309 44.74033084 18.20581055 47.03100586 C18.18755785 50.55134303 18.18530078 54.07141734 18.18554688 57.59179688 C18.18063175 59.81250229 18.17480346 62.03320591 18.16796875 64.25390625 C18.16685593 65.31428604 18.1657431 66.37466583 18.16459656 67.46717834 C18.15821671 68.44166428 18.15183685 69.41615021 18.14526367 70.42016602 C18.13954597 71.71350609 18.13954597 71.71350609 18.13371277 73.03297424 C18 75 18 75 17 76 C15.5112814 76.08669432 14.018555 76.10703494 12.52734375 76.09765625 C11.62822266 76.09443359 10.72910156 76.09121094 9.80273438 76.08789062 C8.38444336 76.07532227 8.38444336 76.07532227 6.9375 76.0625 C5.98810547 76.05798828 5.03871094 76.05347656 4.06054688 76.04882812 C1.70696935 76.0370011 -0.64648477 76.02052025 -3 76 C-4.30760893 73.38478215 -4.11997548 71.46886599 -4.11352539 68.54052734 C-4.11344986 67.39949554 -4.11337433 66.25846375 -4.11329651 65.08285522 C-4.10813522 63.84637238 -4.10297394 62.60988953 -4.09765625 61.3359375 C-4.0962413 60.07359283 -4.09482635 58.81124817 -4.09336853 57.51065063 C-4.08871078 54.15361701 -4.07972408 50.796651 -4.06866455 47.43963623 C-4.0584377 44.01445104 -4.05381342 40.58925867 -4.04882812 37.1640625 C-4.03863184 30.44267015 -4.01905878 23.72139652 -4 17 C-13.24 17 -22.48 17 -32 17 C-32 65.18 -32 113.36 -32 163 C-32.33 163 -32.66 163 -33 163 C-33 114.16 -33 65.32 -33 15 C-23.1 15 -13.2 15 -3 15 C-2.67 34.14 -2.34 53.28 -2 73 C3.61 73 9.22 73 15 73 C15.07421336 66.39805557 15.12863267 59.79635453 15.16479492 53.1940918 C15.17987182 50.94860606 15.20033653 48.70314971 15.22631836 46.45776367 C15.26274918 43.22827901 15.27973755 39.99918406 15.29296875 36.76953125 C15.30845261 35.76727005 15.32393646 34.76500885 15.33988953 33.7323761 C15.34114869 28.50554729 15.11945984 25.37258937 12 21 C12 19.68 12 18.36 12 17 C8.15299368 14.91620491 4.09945571 13.50313376 0 12 C0 8.04 0 4.08 0 0 Z " fill="#6F6F6F" transform="translate(272,132)"/>
<path d="M0 0 C2.35171131 0.59861742 4.6859378 1.26924352 7 2 C7.33 2.66 7.66 3.32 8 4 C8.61875 4.226875 9.2375 4.45375 9.875 4.6875 C13.08312536 6.66898919 13.61911575 9.57780861 15 13 C17.53016581 16.86183203 21.72927372 17.08984522 26 18 C26 22.62 26 27.24 26 32 C-44.29 32 -114.58 32 -187 32 C-187 20 -187 20 -185 18 C-184.01 18.33 -183.02 18.66 -182 19 C-182.66 19.33 -183.32 19.66 -184 20 C-184.33 23.3 -184.66 26.6 -185 30 C-116.36 30 -47.72 30 23 30 C23 27.36 23 24.72 23 22 C23.33 21.34 23.66 20.68 24 20 C23.319375 19.95875 22.63875 19.9175 21.9375 19.875 C17.20209163 18.46445283 13.34213916 15.2368986 10.79296875 10.98828125 C10 9 10 9 10 6 C8.68 6 7.36 6 6 6 C6 5.01 6 4.02 6 3 C4.35 3 2.7 3 1 3 C0.67 2.01 0.34 1.02 0 0 Z " fill="#7F7F80" transform="translate(338,56)"/>
<path d="M0 0 C0.66 0 1.32 0 2 0 C2 18.48 2 36.96 2 56 C6.95 56 11.9 56 17 56 C17 40.49 17 24.98 17 9 C17.66 9.33 18.32 9.66 19 10 C19.02526945 16.6752034 19.04283268 23.35039457 19.05493164 30.02563477 C19.05997325 32.29842591 19.06680637 34.5712138 19.07543945 36.84399414 C19.08751261 40.10303551 19.09322987 43.36203417 19.09765625 46.62109375 C19.10281754 47.64400009 19.10797882 48.66690643 19.11329651 49.72080994 C19.11340981 51.13215965 19.11340981 51.13215965 19.11352539 52.57202148 C19.115746 53.40475082 19.11796661 54.23748016 19.12025452 55.09544373 C19 57 19 57 18 58 C15.15664952 58.09986975 12.34302837 58.13877881 9.5 58.125 C8.70207031 58.12886719 7.90414063 58.13273437 7.08203125 58.13671875 C1.12660767 58.12660767 1.12660767 58.12660767 0 57 C-0.09370624 55.22008076 -0.11744271 53.43643261 -0.11352539 51.65405273 C-0.11344986 50.5129454 -0.11337433 49.37183807 -0.11329651 48.19615173 C-0.10813522 46.9545076 -0.10297394 45.71286346 -0.09765625 44.43359375 C-0.0962413 43.16983414 -0.09482635 41.90607452 -0.09336853 40.60401917 C-0.08870582 37.23875111 -0.0797148 33.8735501 -0.06866455 30.50830078 C-0.05844846 27.0765033 -0.05387049 23.64469891 -0.04882812 20.21289062 C-0.0377738 13.47524176 -0.0210171 6.73762475 0 0 Z " fill="#BCBCBC" transform="translate(269,148)"/>
<path d="M0 0 C0.33 0.66 0.66 1.32 1 2 C-1.02295065 5.03442598 -2.56136349 6.72279215 -6 8 C-7.99110401 8.38290462 -9.99100513 8.72604615 -12 9 C-12 11.97 -12 14.94 -12 18 C69.675 18.495 69.675 18.495 153 19 C153 15.7 153 12.4 153 9 C153.33 9 153.66 9 154 9 C154 12.63 154 16.26 154 20 C132.26045583 20.04666667 110.52091988 20.08196262 88.78133583 20.10362434 C78.68786574 20.11394841 68.59442672 20.12803028 58.50097656 20.15087891 C49.70621101 20.17077825 40.91146795 20.1837082 32.1166805 20.18817699 C27.45748509 20.19079025 22.79835406 20.19695586 18.13917923 20.21146011 C13.75784754 20.2249895 9.37660702 20.22923211 4.99525642 20.22621536 C3.38353417 20.22676762 1.771809 20.23077263 0.16010475 20.23841095 C-2.03321889 20.24829974 -4.22619415 20.24599138 -6.41952515 20.24050903 C-8.26403291 20.24327441 -8.26403291 20.24327441 -10.14580345 20.24609566 C-13 20 -13 20 -15 18 C-15.1953125 15.6171875 -15.1953125 15.6171875 -15.125 12.875 C-15.10695312 11.96492188 -15.08890625 11.05484375 -15.0703125 10.1171875 C-15.04710937 9.41851562 -15.02390625 8.71984375 -15 8 C-14.12988281 7.63648438 -14.12988281 7.63648438 -13.2421875 7.265625 C-8.46513347 5.21606386 -4.22289611 3.03182285 0 0 Z " fill="#ACACAC" transform="translate(187,319)"/>
<path d="M0 0 C0.33 0 0.66 0 1 0 C1 1.65 1 3.3 1 5 C2.32 5 3.64 5 5 5 C5.144375 6.051875 5.28875 7.10375 5.4375 8.1875 C5.87526966 11.15460549 6.37804866 14.06794366 7 17 C7.66 17 8.32 17 9 17 C9.38063221 19.3260857 9.71269945 21.66055264 10 24 C8.26780072 25.73219928 5.97973192 25.21291761 3.625 25.25 C2.64789063 25.27578125 1.67078125 25.3015625 0.6640625 25.328125 C-2 25 -2 25 -3.8515625 23.484375 C-4.23054688 22.99453125 -4.60953125 22.5046875 -5 22 C-6.485 24.475 -6.485 24.475 -8 27 C-9 25 -9 25 -7.78515625 21.3046875 C-7.21866415 19.82514342 -6.64408111 18.34867819 -6.0625 16.875 C-5.77181641 16.12089844 -5.48113281 15.36679687 -5.18164062 14.58984375 C-4.46125002 12.72391398 -3.73149596 10.8616042 -3 9 C-2.34 9 -1.68 9 -1 9 C-0.67 6.03 -0.34 3.06 0 0 Z " fill="#686868" transform="translate(306,447)"/>
<path d="M0 0 C0.84820312 0.33902344 1.69640625 0.67804687 2.5703125 1.02734375 C4.875 2.0625 4.875 2.0625 7.875 4.0625 C7.875 4.7225 7.875 5.3825 7.875 6.0625 C-3.015 6.0625 -13.905 6.0625 -25.125 6.0625 C-25.125 5.4025 -25.125 4.7425 -25.125 4.0625 C-21.39534861 2.02814469 -19.45594958 1.0625 -15.125 1.0625 C-15.125 0.4025 -15.125 -0.2575 -15.125 -0.9375 C-9.42213296 -3.70746399 -5.66615605 -2.2959195 0 0 Z " fill="#E9E9E9" transform="translate(263.125,51.9375)"/>
<path d="M0 0 C0.99 0 1.98 0 3 0 C2.67 3.63 2.34 7.26 2 11 C2.99 11.33 3.98 11.66 5 12 C4.34 12 3.68 12 3 12 C3 12.66 3 13.32 3 14 C8.94 14 14.88 14 21 14 C21 13.34 21 12.68 21 12 C19.68 11.67 18.36 11.34 17 11 C17.66 10.67 18.32 10.34 19 10 C19.99 10.33 20.98 10.66 22 11 C22 12.32 22 13.64 22 15 C15.4 15 8.8 15 2 15 C2 14.34 2 13.68 2 13 C1.34 13 0.68 13 0 13 C0 13.66 0 14.32 0 15 C-21.45 15 -42.9 15 -65 15 C-64.67 14.01 -64.34 13.02 -64 12 C-64 12.66 -64 13.32 -64 14 C-56.08 14 -48.16 14 -40 14 C-40 13.34 -40 12.68 -40 12 C-41.65 11.34 -43.3 10.68 -45 10 C-44.67 9.34 -44.34 8.68 -44 8 C-41.36 9.32 -38.72 10.64 -36 12 C-36 12.66 -36 13.32 -36 14 C-24.45 14 -12.9 14 -1 14 C-1 12.35 -1 10.7 -1 9 C-1 3 -1 3 0 0 Z " fill="#7F7F7F" transform="translate(283,477)"/>
<path d="M0 0 C1.32229189 2.64458379 1.09677194 4.67761301 1.0625 7.625 C1.05347656 8.62789063 1.04445313 9.63078125 1.03515625 10.6640625 C1.02355469 11.43492187 1.01195312 12.20578125 1 13 C0.01 13 -0.98 13 -2 13 C-2.556875 11.906875 -3.11375 10.81375 -3.6875 9.6875 C-5.67923471 6.27112172 -7.19128638 4.43884737 -11 3 C-14.01892136 2.7763762 -16.97982331 2.82234255 -20 3 C-20 2.34 -20 1.68 -20 1 C-22.64 1 -25.28 1 -28 1 C-27 -1 -27 -1 -24.7578125 -2.10546875 C-16.76192817 -4.69903463 -7.66546379 -3.08315702 0 0 Z " fill="#6E6E6F" transform="translate(263,391)"/>
<path d="M0 0 C22.11 0 44.22 0 67 0 C67 4.62 67 9.24 67 14 C64.6870518 16.3129482 63.52095125 16.49580975 60.375 17.125 C59.55773437 17.29257813 58.74046875 17.46015625 57.8984375 17.6328125 C57.27195312 17.75398438 56.64546875 17.87515625 56 18 C56.33 17.34 56.66 16.68 57 16 C57.66 16 58.32 16 59 16 C59 15.34 59 14.68 59 14 C60.98 14 62.96 14 65 14 C65 9.71 65 5.42 65 1 C43.88 1 22.76 1 1 1 C1.33 4.96 1.66 8.92 2 13 C3.7015625 13.433125 3.7015625 13.433125 5.4375 13.875 C6.613125 14.24625 7.78875 14.6175 9 15 C9.33 15.66 9.66 16.32 10 17 C9.01 17 8.02 17 7 17 C7 16.34 7 15.68 7 15 C5.5459375 15.0309375 5.5459375 15.0309375 4.0625 15.0625 C1 15 1 15 0 14 C0 9.38 0 4.76 0 0 Z " fill="#C1C1C1" transform="translate(271,131)"/>
<path d="M0 0 C0.66 0 1.32 0 2 0 C4.42378711 5.79601264 5.51053237 10.73481438 6 17 C2.7 17 -0.6 17 -4 17 C-2.75471089 11.30724979 -1.43747278 5.6472145 0 0 Z " fill="#E8E8E9" transform="translate(292,399)"/>
<path d="M0 0 C0.99 0 1.98 0 3 0 C3 5.28 3 10.56 3 16 C-1 14 -1 14 -2 11 C-5.3 10.67 -8.6 10.34 -12 10 C-11.67 8.68 -11.34 7.36 -11 6 C-6.545 5.505 -6.545 5.505 -2 5 C-1.34 3.35 -0.68 1.7 0 0 Z " fill="#868686" transform="translate(208,405)"/>
<path d="M0 0 C0.66 0 1.32 0 2 0 C4.42568913 4.85137825 4.57339572 9.66744655 5 15 C1.7 15 -1.6 15 -5 15 C-1.85714286 4.28571429 -1.85714286 4.28571429 0 0 Z " fill="#EFEFEF" transform="translate(309,455)"/>
<path d="M0 0 C1 2 1 2 0 8 C-21.45 8 -42.9 8 -65 8 C-64.67 7.01 -64.34 6.02 -64 5 C-64 5.66 -64 6.32 -64 7 C-56.08 7 -48.16 7 -40 7 C-40 6.34 -40 5.68 -40 5 C-40.66 4.67 -41.32 4.34 -42 4 C-37.545 3.505 -37.545 3.505 -33 3 C-33.33 3.66 -33.66 4.32 -34 5 C-34.99 5 -35.98 5 -37 5 C-37 5.66 -37 6.32 -37 7 C-25.12 7 -13.24 7 -1 7 C-1 5.02 -1 3.04 -1 1 C-0.67 0.67 -0.34 0.34 0 0 Z " fill="#8E8E8F" transform="translate(377,484)"/>
<path d="M0 0 C0.66 0 1.32 0 2 0 C2.50546036 2.08201528 3.00416835 4.16567067 3.5 6.25 C3.7784375 7.41015625 4.056875 8.5703125 4.34375 9.765625 C5 13 5 13 5 17 C2.03 17 -0.94 17 -4 17 C-3.45012298 12.41769152 -2.54451204 8.34394011 -1 4 C-0.65023242 2.67088318 -0.30903983 1.33917261 0 0 Z " fill="#F0F0F0" transform="translate(215,453)"/>
<path d="M0 0 C11.55 0 23.1 0 35 0 C35.495 5.445 35.495 5.445 36 11 C31.61364256 8.80682128 30.48743095 7.08649371 28 3 C28.33 2.34 28.66 1.68 29 1 C16.625 1.495 16.625 1.495 4 2 C3.67 2.66 3.34 3.32 3 4 C2.01 3.67 1.02 3.34 0 3 C0 2.01 0 1.02 0 0 Z " fill="#636364" transform="translate(179,390)"/>
<path d="M0 0 C0.66 0 1.32 0 2 0 C2 0.66 2 1.32 2 2 C1.34 2 0.68 2 0 2 C-0.33 3.98 -0.66 5.96 -1 8 C-0.34 8 0.32 8 1 8 C0.39523897 13.68475366 -1.09187815 18.60748173 -3 24 C0.3 24 3.6 24 7 24 C7 24.33 7 24.66 7 25 C3.37 25 -0.26 25 -4 25 C-3.67 21.7 -3.34 18.4 -3 15 C-3.66 15 -4.32 15 -5 15 C-5.12375 16.134375 -5.2475 17.26875 -5.375 18.4375 C-5.58125 19.613125 -5.7875 20.78875 -6 22 C-6.66 22.33 -7.32 22.66 -8 23 C-6.9318153 17.88634986 -5.76892524 12.92772031 -4 8 C-3.34 8 -2.68 8 -2 8 C-1.855625 6.865625 -1.71125 5.73125 -1.5625 4.5625 C-1 1 -1 1 0 0 Z " fill="#777777" transform="translate(291,392)"/>
<path d="M0 0 C0.33 0 0.66 0 1 0 C1.02464775 5.53588533 1.04283496 11.071739 1.05493164 16.60766602 C1.05997244 18.4924373 1.06680498 20.37720465 1.07543945 22.26196289 C1.08751617 24.96501636 1.09323068 27.66801831 1.09765625 30.37109375 C1.10281754 31.21900986 1.10797882 32.06692596 1.11329651 32.9405365 C1.11349195 34.96071068 1.06206211 36.98077934 1 39 C0.505 39.495 0.505 39.495 0 40 C9.9 40.33 19.8 40.66 30 41 C30 41.33 30 41.66 30 42 C18.78 42 7.56 42 -4 42 C-4 41.01 -4 40.02 -4 39 C-2.02 38.505 -2.02 38.505 0 38 C0 25.46 0 12.92 0 0 Z " fill="#6A6A6B" transform="translate(251,449)"/>
<path d="M0 0 C2.31 0.33 4.62 0.66 7 1 C6.67 1.99 6.34 2.98 6 4 C11.61 4 17.22 4 23 4 C23 3.34 23 2.68 23 2 C21.68 1.34 20.36 0.68 19 0 C20.98 0.33 22.96 0.66 25 1 C25 2.32 25 3.64 25 5 C10.15 5 -4.7 5 -20 5 C-19.67 4.01 -19.34 3.02 -19 2 C-19 2.66 -19 3.32 -19 4 C-11.74 4 -4.48 4 3 4 C3 3.34 3 2.68 3 2 C2.01 1.67 1.02 1.34 0 1 C0 0.67 0 0.34 0 0 Z " fill="#9A9A9B" transform="translate(187,487)"/>
<path d="M0 0 C0.33 0 0.66 0 1 0 C1 1.65 1 3.3 1 5 C2.32 5 3.64 5 5 5 C5 5.99 5 6.98 5 8 C4.01 8.495 4.01 8.495 3 9 C2.21655744 10.99291777 1.51983635 13.02051823 0.875 15.0625 C0.52179688 16.16722656 0.16859375 17.27195312 -0.1953125 18.41015625 C-0.46085937 19.26480469 -0.72640625 20.11945313 -1 21 C-1.5534764 18.92446352 -2 17.15634036 -2 15 C-2.66 15 -3.32 15 -4 15 C-4.33 15.99 -4.66 16.98 -5 18 C-4.41196203 14.97580475 -3.77321882 11.98241547 -3 9 C-2.34 9 -1.68 9 -1 9 C-0.67 6.03 -0.34 3.06 0 0 Z " fill="#6A6A6B" transform="translate(306,447)"/>
<path d="M0 0 C2.35171131 0.59861742 4.6859378 1.26924352 7 2 C7.33 2.66 7.66 3.32 8 4 C8.61875 4.226875 9.2375 4.45375 9.875 4.6875 C13.08312536 6.66898919 13.61911575 9.57780861 15 13 C17.45548277 16.43767587 21.18112825 17.48686214 25 19 C25 22.96 25 26.92 25 31 C24.67 31 24.34 31 24 31 C24 27.37 24 23.74 24 20 C22.35 19.67 20.7 19.34 19 19 C17.05078125 17.73046875 17.05078125 17.73046875 15.3125 16.1875 C14.73113281 15.68605469 14.14976562 15.18460938 13.55078125 14.66796875 C10.94445193 11.86468759 10 9.83901488 10 6 C8.68 6 7.36 6 6 6 C6 5.01 6 4.02 6 3 C4.35 3 2.7 3 1 3 C0.67 2.01 0.34 1.02 0 0 Z " fill="#7E7E7E" transform="translate(338,56)"/>
<path d="M0 0 C0.99 0 1.98 0 3 0 C2.67 3.63 2.34 7.26 2 11 C2.99 11.33 3.98 11.66 5 12 C4.34 12 3.68 12 3 12 C3 12.66 3 13.32 3 14 C8.94 14 14.88 14 21 14 C21 13.34 21 12.68 21 12 C19.68 11.67 18.36 11.34 17 11 C17.66 10.67 18.32 10.34 19 10 C19.99 10.33 20.98 10.66 22 11 C22 12.32 22 13.64 22 15 C15.4 15 8.8 15 2 15 C2 14.34 2 13.68 2 13 C1.34 13 0.68 13 0 13 C0 10.36 0 7.72 0 5 C-0.99 5.495 -0.99 5.495 -2 6 C-1.34 4.02 -0.68 2.04 0 0 Z " fill="#8D8D8E" transform="translate(283,477)"/>
<path d="M0 0 C7.92 0 15.84 0 24 0 C24 0.99 24 1.98 24 3 C18.06 2.67 12.12 2.34 6 2 C5.67 2.99 5.34 3.98 5 5 C2.525 4.01 2.525 4.01 0 3 C0 2.01 0 1.02 0 0 Z " fill="#727273" transform="translate(339,444)"/>
<path d="M0 0 C7.92 0 15.84 0 24 0 C23.34 1.32 22.68 2.64 22 4 C21.34 3.67 20.68 3.34 20 3 C17.62597499 2.92883618 15.24999323 2.91590915 12.875 2.9375 C11.59367188 2.94652344 10.31234375 2.95554687 8.9921875 2.96484375 C8.00476563 2.97644531 7.01734375 2.98804688 6 3 C5.67 3.66 5.34 4.32 5 5 C2.525 4.01 2.525 4.01 0 3 C0 2.01 0 1.02 0 0 Z " fill="#787879" transform="translate(167,444)"/>
<path d="M0 0 C1.125 3.75 1.125 3.75 0 6 C0.66 6 1.32 6 2 6 C1.40546697 15.59453303 1.40546697 15.59453303 -2 19 C-2.33 17.68 -2.66 16.36 -3 15 C-3.66 16.98 -4.32 18.96 -5 21 C-5.66 21 -6.32 21 -7 21 C-5.58691049 15.70091433 -3.80575995 10.59594008 -1.90234375 5.453125 C-1.23774583 3.64633932 -0.60878279 1.82634838 0 0 Z " fill="#6D6D6D" transform="translate(213,447)"/>
<path d="M0 0 C7.92 0 15.84 0 24 0 C23.67 0.99 23.34 1.98 23 3 C17.39 3 11.78 3 6 3 C5.67 3.66 5.34 4.32 5 5 C2.525 4.01 2.525 4.01 0 3 C0 2.01 0 1.02 0 0 Z " fill="#737373" transform="translate(245,444)"/>
<path d="M0 0 C0.33 0.66 0.66 1.32 1 2 C2.65 2 4.3 2 6 2 C6 2.66 6 3.32 6 4 C6.86625 4.0825 7.7325 4.165 8.625 4.25 C11.84050789 4.96455731 13.47894433 5.90812532 16.08203125 7.8203125 C19.63836036 10.00770841 23.60414479 11.35141632 27.48828125 12.8515625 C30 14 30 14 31 16 C27.37 15.01 23.74 14.02 20 13 C20 12.34 20 11.68 20 11 C18.35 11 16.7 11 15 11 C14.67 10.34 14.34 9.68 14 9 C11.97536745 8.34786708 11.97536745 8.34786708 10 8 C10 7.34 10 6.68 10 6 C8.35 6 6.7 6 5 6 C4.67 5.34 4.34 4.68 4 4 C1.97536745 3.34786708 1.97536745 3.34786708 0 3 C0 2.01 0 1.02 0 0 Z " fill="#8B8B8C" transform="translate(257,16)"/>
<path d="M0 0 C7.92 0 15.84 0 24 0 C23.67 0.99 23.34 1.98 23 3 C17.06 2.67 11.12 2.34 5 2 C5 2.66 5 3.32 5 4 C3.35 3.67 1.7 3.34 0 3 C0 2.01 0 1.02 0 0 Z " fill="#757575" transform="translate(136,444)"/>
<path d="M0 0 C0.66 0 1.32 0 2 0 C2 2.64 2 5.28 2 8 C1.34 8 0.68 8 0 8 C0 8.99 0 9.98 0 11 C-10.89 11 -21.78 11 -33 11 C-33 10.67 -33 10.34 -33 10 C-22.44 10 -11.88 10 -1 10 C-0.67 8.02 -0.34 6.04 0 4 C-0.99 4 -1.98 4 -3 4 C-1.625 2 -1.625 2 0 0 Z " fill="#777778" transform="translate(215,426)"/>
<path d="M0 0 C-0.63808594 0.33773437 -1.27617187 0.67546875 -1.93359375 1.0234375 C-2.75988281 1.46945313 -3.58617187 1.91546875 -4.4375 2.375 C-5.26121094 2.81585938 -6.08492187 3.25671875 -6.93359375 3.7109375 C-9.13466578 4.83418559 -9.13466578 4.83418559 -10 7 C-13.87918356 8.31745857 -16.88375865 9 -21 9 C-21 9.66 -21 10.32 -21 11 C-22.65 11.33 -24.3 11.66 -26 12 C-23.34926135 8.26933078 -21.4791108 6.17310045 -17 5 C-13.6875 4.875 -13.6875 4.875 -11 5 C-11 4.34 -11 3.68 -11 3 C-3.88372093 -1.94186047 -3.88372093 -1.94186047 0 0 Z " fill="#969696" transform="translate(199,45)"/>
<path d="M0 0 C1.32 0.33 2.64 0.66 4 1 C3.34 1 2.68 1 2 1 C2 1.66 2 2.32 2 3 C12.89 3 23.78 3 35 3 C35 2.34 35 1.68 35 1 C35.66 1 36.32 1 37 1 C37 1.99 37 2.98 37 4 C24.79 4.33 12.58 4.66 0 5 C0 3.35 0 1.7 0 0 Z " fill="#808080" transform="translate(236,55)"/>
<path d="M0 0 C2.64 1.32 5.28 2.64 8 4 C8 4.99 8 5.98 8 7 C-1.24 7 -10.48 7 -20 7 C-19.67 6.01 -19.34 5.02 -19 4 C-19 4.66 -19 5.32 -19 6 C-11.08 6 -3.16 6 5 6 C5 5.34 5 4.68 5 4 C3.35 3.34 1.7 2.68 0 2 C0 1.34 0 0.68 0 0 Z " fill="#9B9B9C" transform="translate(238,485)"/>
<path d="M0 0 C0.33 0.66 0.66 1.32 1 2 C-1.02978193 5.0446729 -2.52313929 6.77840029 -6 8 C-8.66641481 8.44525545 -11.30658968 8.73065897 -14 9 C-14 11.97 -14 14.94 -14 18 C-14.33 18 -14.66 18 -15 18 C-15 14.7 -15 11.4 -15 8 C-13.63875 7.4225 -12.2775 6.845 -10.875 6.25 C-6.92139751 4.50117109 -3.50622252 2.51728796 0 0 Z " fill="#BABABB" transform="translate(187,319)"/>
<path d="M0 0 C-0.99 1.485 -0.99 1.485 -2 3 C-4.3306218 3.35179197 -6.66435067 3.68330179 -9 4 C-10.68029994 4.97691857 -12.34928604 5.97388051 -14 7 C-15.32 7 -16.64 7 -18 7 C-18.33 7.99 -18.66 8.98 -19 10 C-20.32 9.67 -21.64 9.34 -23 9 C-22.01 8.67 -21.02 8.34 -20 8 C-19.67 7.34 -19.34 6.68 -19 6 C-16.97259829 5.12611995 -14.9092763 4.47019078 -12.8125 3.78125 C-10.80487204 3.14670555 -10.80487204 3.14670555 -10 1 C-6.3241179 -0.55203911 -3.80989402 -1.46534385 0 0 Z " fill="#A3A3A3" transform="translate(240,24)"/>
<path d="M0 0 C4.62 0 9.24 0 14 0 C14.66 2.31 15.32 4.62 16 7 C15.34 6.67 14.68 6.34 14 6 C14 4.68 14 3.36 14 2 C12.06183265 2.1141866 10.12444901 2.24173423 8.1875 2.375 C7.10855469 2.44460938 6.02960938 2.51421875 4.91796875 2.5859375 C1.81373814 2.81195733 1.81373814 2.81195733 -1 5 C-0.67 3.35 -0.34 1.7 0 0 Z " fill="#CECECE" transform="translate(285,420)"/>
<path d="M0 0 C0.33 0 0.66 0 1 0 C1 4.95 1 9.9 1 15 C-2 13 -2 13 -3.375 10.1875 C-4 7 -4 7 -2.6875 4.25 C-2.130625 3.5075 -1.57375 2.765 -1 2 C-0.67 1.34 -0.34 0.68 0 0 Z " fill="#424243" transform="translate(209,406)"/>
<path d="M0 0 C7.59 0 15.18 0 23 0 C23 0.99 23 1.98 23 3 C22.34 2.67 21.68 2.34 21 2 C18.12089412 1.76725791 15.25853505 1.58027243 12.375 1.4375 C11.57320313 1.39431641 10.77140625 1.35113281 9.9453125 1.30664062 C7.9637489 1.20048543 5.98189729 1.09973145 4 1 C4.33 2.32 4.66 3.64 5 5 C2.525 4.01 2.525 4.01 0 3 C0 2.01 0 1.02 0 0 Z " fill="#6D6D6D" transform="translate(323,390)"/>
<path d="M0 0 C0.33 0 0.66 0 1 0 C1 4.62 1 9.24 1 14 C-5.0546875 16.44140625 -5.0546875 16.44140625 -7 17 C-7.66 16.67 -8.32 16.34 -9 16 C-8.01 15.67 -7.02 15.34 -6 15 C-6 14.34 -6 13.68 -6 13 C-4.02 13 -2.04 13 0 13 C0 8.71 0 4.42 0 0 Z " fill="#A9A9AA" transform="translate(336,132)"/>
<path d="M0 0 C0.33 0 0.66 0 1 0 C1 1.65 1 3.3 1 5 C2.32 5 3.64 5 5 5 C5 5.99 5 6.98 5 8 C4.01 8.495 4.01 8.495 3 9 C2.26924352 11.3140622 1.59861742 13.64828869 1 16 C-0.51523239 10.37199399 -1.23698436 5.7725937 0 0 Z " fill="#7D7D7D" transform="translate(306,447)"/>
<path d="M0 0 C0.99 0 1.98 0 3 0 C2.34 2.97 1.68 5.94 1 9 C0.34 8.34 -0.32 7.68 -1 7 C-1.99 7 -2.98 7 -4 7 C-2.68 4.69 -1.36 2.38 0 0 Z " fill="#686869" transform="translate(174,423)"/>
<path d="M0 0 C0.85609863 0.23771118 0.85609863 0.23771118 1.72949219 0.48022461 C3.97210188 0.99361343 6.03317915 1.20165896 8.328125 1.31640625 C9.52695312 1.37924805 9.52695312 1.37924805 10.75 1.44335938 C11.9875 1.50233398 11.9875 1.50233398 13.25 1.5625 C14.09046875 1.60568359 14.9309375 1.64886719 15.796875 1.69335938 C17.86440671 1.79908543 19.93218281 1.90001295 22 2 C22 2.33 22 2.66 22 3 C14.74 3 7.48 3 0 3 C0 2.01 0 1.02 0 0 Z " fill="#626263" transform="translate(313,488)"/>
<path d="M0 0 C0.85609863 0.23771118 0.85609863 0.23771118 1.72949219 0.48022461 C3.97210188 0.99361343 6.03317915 1.20165896 8.328125 1.31640625 C9.52695313 1.37924805 9.52695313 1.37924805 10.75 1.44335938 C11.9875 1.50233398 11.9875 1.50233398 13.25 1.5625 C14.09046875 1.60568359 14.9309375 1.64886719 15.796875 1.69335938 C17.86440671 1.79908543 19.93218281 1.90001295 22 2 C22 2.33 22 2.66 22 3 C14.74 3 7.48 3 0 3 C0 2.01 0 1.02 0 0 Z " fill="#666667" transform="translate(219,488)"/>
<path d="M0 0 C2.31 0 4.62 0 7 0 C7.33 0.99 7.66 1.98 8 3 C9.65 3 11.3 3 13 3 C13.33 3.99 13.66 4.98 14 6 C12.4221875 5.5359375 12.4221875 5.5359375 10.8125 5.0625 C5.48280776 3.53071039 5.48280776 3.53071039 0 3 C0 2.01 0 1.02 0 0 Z " fill="#727272" transform="translate(251,47)"/>
<path d="M0 0 C0.86963379 0.23771118 0.86963379 0.23771118 1.75683594 0.48022461 C5.21220398 1.28088618 8.71910303 1.37223082 12.25 1.5625 C12.99507812 1.60568359 13.74015625 1.64886719 14.5078125 1.69335938 C16.338349 1.79896725 18.16915176 1.89994201 20 2 C20 2.33 20 2.66 20 3 C13.4 3 6.8 3 0 3 C0 2.01 0 1.02 0 0 Z " fill="#616162" transform="translate(137,488)"/>
<path d="M0 0 C0.66 0.33 1.32 0.66 2 1 C1.34 1.66 0.68 2.32 0 3 C-1.70422546 6.60894804 -2.4499338 10.05785891 -3 14 C-3.33 14 -3.66 14 -4 14 C-4.63019694 5.96498906 -4.63019694 5.96498906 -2 1.9375 C-1.34 1.298125 -0.68 0.65875 0 0 Z " fill="#A1A1A2" transform="translate(367,365)"/>
<path d="M0 0 C0.66 0 1.32 0 2 0 C1.67 0.99 1.34 1.98 1 3 C0.01 3.33 -0.98 3.66 -2 4 C-2.33 4.66 -2.66 5.32 -3 6 C-5.32156597 6.40729228 -7.6568787 6.74438677 -10 7 C-9.67 6.34 -9.34 5.68 -9 5 C-7.68 5 -6.36 5 -5 5 C-5 4.01 -5 3.02 -5 2 C-3.35 2 -1.7 2 0 2 C0 1.34 0 0.68 0 0 Z " fill="#8F8F8F" transform="translate(250,16)"/>
<path d="M0 0 C0.33 0.66 0.66 1.32 1 2 C-1.20927127 5.48832306 -3.08597051 6.73058503 -7 8 C-6.875 6.25 -6.875 6.25 -6 4 C-2.9375 1.75 -2.9375 1.75 0 0 Z " fill="#808081" transform="translate(187,319)"/>
<path d="M0 0 C1.32 0 2.64 0 4 0 C4.52992692 1.45505358 5.0486789 2.91418127 5.5625 4.375 C5.85253906 5.18710937 6.14257812 5.99921875 6.44140625 6.8359375 C7 9 7 9 6 11 C3.59185923 7.48812804 2.63370592 5.27343092 3 1 C2.01 0.67 1.02 0.34 0 0 Z " fill="#9B9B9B" transform="translate(315,443)"/>
<path d="M0 0 C0.66 0 1.32 0 2 0 C1.43454163 3.95820859 0.19097652 6.6659053 -2 10 C-2.66 9.67 -3.32 9.34 -4 9 C-2.68 6.03 -1.36 3.06 0 0 Z " fill="#626263" transform="translate(164,62)"/>
<path d="M0 0 C0 1.66666667 0 3.33333333 0 5 C-1.98 5 -3.96 5 -6 5 C-4.87312259 1.61936778 -3.78825335 0 0 0 Z " fill="#69696A" transform="translate(275,432)"/>
<path d="M0 0 C0.33 0 0.66 0 1 0 C1 3.63 1 7.26 1 11 C-2 9 -2 9 -2.6875 6.875 C-2.790625 6.25625 -2.89375 5.6375 -3 5 C-2.34 5 -1.68 5 -1 5 C-0.67 3.35 -0.34 1.7 0 0 Z " fill="#5C5C5D" transform="translate(209,410)"/>
<path d="M0 0 C0.99 0 1.98 0 3 0 C3 1.65 3 3.3 3 5 C1.35 5.33 -0.3 5.66 -2 6 C-1.34 4.02 -0.68 2.04 0 0 Z " fill="#787879" transform="translate(283,477)"/>
<path d="M0 0 C1.65 0.33 3.3 0.66 5 1 C4.67 2.65 4.34 4.3 4 6 C2.35 5.67 0.7 5.34 -1 5 C0.32 4.67 1.64 4.34 3 4 C3 3.01 3 2.02 3 1 C2.01 0.67 1.02 0.34 0 0 Z " fill="#5B5B5C" transform="translate(270,55)"/>
<path d="M0 0 C0.33 0 0.66 0 1 0 C1 1.98 1 3.96 1 6 C1.99 6.33 2.98 6.66 4 7 C3.34 7 2.68 7 2 7 C1.67 7.99 1.34 8.98 1 10 C1 9.34 1 8.68 1 8 C0.34 8 -0.32 8 -1 8 C-0.67 5.36 -0.34 2.72 0 0 Z " fill="#C4C4C4" transform="translate(284,482)"/>
</svg>
